<svg width="44" height="44" viewBox="0 0 44 44" fill="none" xmlns="http://www.w3.org/2000/svg">
<path d="M0 22C0 9.84974 9.84974 0 22 0C34.1503 0 44 9.84974 44 22C44 34.1503 34.1503 44 22 44C9.84974 44 0 34.1503 0 22Z" fill="#F3F4F6"/>
<path d="M23.9855 24.0285L22.6891 27.5632C22.6488 27.6631 22.6488 27.7745 22.6891 27.8743L24.9119 33.962L27.4977 32.4807L24.4003 24.0285C24.3839 23.9868 24.3553 23.9512 24.3183 23.926C24.2813 23.9009 24.2376 23.8875 24.1928 23.8875C24.148 23.8875 24.1043 23.9009 24.0673 23.926C24.0304 23.9512 24.0019 23.9868 23.9855 24.0285ZM26.5781 18.0739C26.5624 18.0316 26.534 17.9951 26.4971 17.9693C26.4599 17.9435 26.4159 17.9297 26.3707 17.9297C26.3256 17.9297 26.2815 17.9435 26.2444 17.9693C26.2073 17.9951 26.1791 18.0316 26.1633 18.0739L24.8669 21.6069C24.8267 21.7068 24.8267 21.8183 24.8669 21.918L28.5192 31.8879L31.0981 30.4065L26.5781 18.0653V18.0739Z" fill="#15202E"/>
<path d="M22.0005 10.1549C22.0663 10.1549 22.128 10.1721 22.1855 10.2067L32.1864 16.0213C32.2431 16.0532 32.2901 16.0997 32.3227 16.1559C32.3551 16.2122 32.3721 16.2761 32.3713 16.3411V27.6521C32.3717 27.7168 32.3548 27.7804 32.3221 27.8364C32.2896 27.8923 32.2428 27.9385 32.1864 27.9703L22.1855 33.8072C22.1289 33.8387 22.0653 33.8553 22.0005 33.8553C21.9359 33.8553 21.8721 33.8387 21.8156 33.8072L11.8147 27.9805C11.7578 27.9487 11.7106 27.9017 11.6781 27.8452C11.6455 27.7887 11.6288 27.7244 11.6297 27.6591V16.3411C11.6297 16.2062 11.7041 16.0887 11.8147 16.0213L21.8156 10.2067C21.8704 10.1699 21.9345 10.1495 22.0005 10.148V10.1549ZM22.0005 8.66666C21.6445 8.6691 21.2952 8.76316 20.986 8.93975L11.1631 14.5919C10.8553 14.7687 10.5995 15.0235 10.4214 15.3305C10.2433 15.6376 10.1492 15.9861 10.1484 16.3411V27.6521C10.1484 28.3712 10.5322 29.0453 11.1631 29.4083L20.986 35.0604C21.2941 35.2391 21.6441 35.3333 22.0005 35.3333C22.3569 35.3333 22.7069 35.2391 23.0152 35.0604L32.838 29.4083C33.148 29.2321 33.4055 28.9767 33.5837 28.668C33.7621 28.3593 33.8549 28.0088 33.8527 27.6521V16.3411C33.8527 15.622 33.4672 14.9479 32.838 14.5919L23.0152 8.93975C22.706 8.76316 22.3567 8.6691 22.0005 8.66666Z" fill="#15202E"/>
<path d="M15.5039 31.904L16.4079 29.4375L18.2228 30.9413L16.5272 32.4969L15.5039 31.904Z" fill="#15202E"/>
<path d="M21.1784 15.332H18.6825C18.5907 15.3341 18.5018 15.3641 18.4276 15.4182C18.3534 15.4723 18.2976 15.5478 18.2676 15.6345L12.9336 30.3991L15.5038 31.9029L21.3859 15.6432C21.3984 15.6084 21.4028 15.5711 21.3981 15.5344C21.3935 15.4977 21.38 15.4627 21.3591 15.4322C21.3381 15.4018 21.3101 15.3768 21.2775 15.3593C21.2448 15.3419 21.2085 15.3325 21.1715 15.332H21.1784ZM25.5341 15.332H23.0452C22.9543 15.3335 22.8659 15.3626 22.7917 15.4154C22.7177 15.4681 22.6615 15.5422 22.6303 15.6276L16.5271 32.4732L19.1042 33.9771L25.7416 15.6362C25.7611 15.5852 25.7613 15.5288 25.7423 15.4775C25.7231 15.4263 25.6861 15.3838 25.6379 15.358C25.6059 15.3411 25.5703 15.3322 25.5341 15.332Z" fill="#15202E"/>
</svg>
