<?xml version="1.0" encoding="UTF-8"?>
<svg version="1.1" xmlns="http://www.w3.org/2000/svg" width="1000" height="1000">
<path d="M0 0 C330 0 660 0 1000 0 C1000 330 1000 660 1000 1000 C670 1000 340 1000 0 1000 C0 670 0 340 0 0 Z " fill="#FEFEFE" transform="translate(0,0)"/>
<path d="M0 0 C330 0 660 0 1000 0 C1000 330 1000 660 1000 1000 C670 1000 340 1000 0 1000 C0 670 0 340 0 0 Z M436.41113281 43.01220703 C430.95162531 46.19366352 425.47527059 49.34577703 420 52.5 C417.83324656 53.74984958 415.66658002 54.99984983 413.5 56.25 C296.5 123.75 296.5 123.75 293.24951172 125.62524414 C291.08442929 126.87435518 288.91939018 128.12354129 286.75439453 129.37280273 C281.31384294 132.51202309 275.87252784 135.64990563 270.4296875 138.78515625 C259.93767906 144.83055159 249.45518324 150.89110219 239 157 C227.4702727 163.73674715 215.90614779 170.41290104 204.33496094 177.078125 C200.91246455 179.05044502 197.49115559 181.02481457 194.0703125 183 C175.2046547 193.89187323 175.2046547 193.89187323 167.875 198.0625 C160.82221376 202.08155098 153.8208639 206.18792853 146.81713867 210.29174805 C141.10604115 213.63056396 135.3755569 216.93030226 129.61328125 220.1796875 C128.36407434 220.88603109 127.11488806 221.59241114 125.86572266 222.29882812 C123.48263431 223.64608078 121.09524187 224.98444727 118.70458984 226.31835938 C103.33969718 235.0010134 90.81746895 244.48125464 82 260 C81.525625 260.825 81.05125 261.65 80.5625 262.5 C75.12789207 272.5928433 72.88170843 283.93006604 72.86577892 295.33097649 C72.86342669 296.05066482 72.86107446 296.77035316 72.85865095 297.51185024 C72.85199258 299.92408366 72.85241822 302.33626282 72.85282898 304.74850464 C72.84952838 306.49532087 72.84580239 308.24213634 72.8416875 309.98895085 C72.83168159 314.79017495 72.82795297 319.59138656 72.82529819 324.39261961 C72.82139092 329.57078805 72.81181283 334.74894663 72.80308533 339.92710876 C72.78333215 352.43350668 72.77325584 364.93990538 72.76435754 377.44631499 C72.75997248 383.33874386 72.7546062 389.23117184 72.74936867 395.12360001 C72.73235701 414.71678163 72.71786366 434.30996269 72.71061993 453.90315056 C72.70871009 458.98654048 72.70678975 464.0699304 72.70483398 469.15332031 C72.70435024 470.41674161 72.7038665 471.68016292 72.7033681 472.98186971 C72.69507089 493.44049674 72.66973888 513.89906524 72.63725331 534.35766672 C72.60415848 555.3716457 72.58616894 576.38559497 72.58297569 597.39960015 C72.58081276 609.19425151 72.57209602 620.98881753 72.54651451 632.78344345 C72.52477438 642.83006351 72.51677339 652.8765775 72.52648129 662.92321841 C72.53101645 668.04519918 72.52918542 673.16696125 72.50971985 678.28891182 C72.49201919 682.9872409 72.49314157 687.68519287 72.50861714 692.38352634 C72.51098278 694.07406925 72.50672448 695.76463875 72.49478849 697.45514117 C72.34979696 719.36547536 78.20855267 738.19870157 93.375 754.5625 C94.24125 755.366875 95.1075 756.17125 96 757 C96.89368286 757.86117432 96.89368286 757.86117432 97.80541992 758.73974609 C103.68759601 764.2283269 109.92244936 768.17044283 116.9375 772.0625 C118.66748883 773.04121878 120.39746812 774.01995491 122.12686157 774.99972534 C123.90810553 776.00716501 125.69188387 777.00999641 127.47607422 778.01220703 C133.01138323 781.12720821 138.50298646 784.31809012 144 787.5 C146.1664686 788.75034325 148.33313579 790.00034247 150.5 791.25 C224.16666667 833.75 297.83333333 876.25 371.5 918.75 C372.57266113 919.36883057 373.64532227 919.98766113 374.75048828 920.62524414 C376.91557071 921.87435518 379.08060982 923.12354129 381.24560547 924.37280273 C386.68615706 927.51202309 392.12747216 930.64990563 397.5703125 933.78515625 C407.03844451 939.24071111 416.50361796 944.70035216 425.93530273 950.21875 C428.87764642 951.93904728 431.82329032 953.65357488 434.76953125 955.3671875 C438.63979289 957.61845509 442.50011944 959.88536097 446.35247803 962.16703796 C448.81590111 963.62205498 451.28633018 965.06489373 453.75811768 966.50564575 C455.4933698 967.52200939 457.22026914 968.55259311 458.94677734 969.58374023 C467.05953333 974.29412159 475.02289578 977.39078291 484 980 C484.69939697 980.20407471 485.39879395 980.40814941 486.11938477 980.6184082 C507.62644195 984.98236126 527.99130971 977.53710371 546.125 966.625 C548.23394686 965.37557912 550.34333737 964.12690686 552.453125 962.87890625 C553.53142578 962.23840332 554.60972656 961.59790039 555.72070312 960.93798828 C561.08091953 957.77022489 566.47802537 954.6670842 571.875 951.5625 C574.05994605 950.30347256 576.24484166 949.04435758 578.4296875 947.78515625 C579.51475586 947.16012207 580.59982422 946.53508789 581.71777344 945.89111328 C587.14659945 942.7631985 592.57317249 939.63138034 598 936.5 C600.16015357 935.25390161 602.32030983 934.00780786 604.48046875 932.76171875 C608.87959075 930.22384007 613.27794321 927.68463417 617.67578125 925.14453125 C627.6060924 919.41012622 637.53968715 913.68216694 647.5 908 C664.70816964 898.18120136 681.85824287 888.2628483 698.96459961 878.26782227 C709.52536152 872.10125075 720.12085666 865.99527725 730.71777344 859.89111328 C736.14659938 856.76319854 741.57322007 853.63146269 747 850.5 C753.52233275 846.73636081 760.04513762 842.97355378 766.5703125 839.21484375 C777.02206279 833.19252625 787.46293115 827.15319743 797.875 821.0625 C807.69138458 815.32246579 817.55465494 809.66676663 827.43261719 804.03369141 C836.40955773 798.91381082 845.36995122 793.76591727 854.31591797 788.59204102 C859.29574287 785.7120918 864.27810665 782.83715843 869.27536011 779.98756409 C871.04364124 778.97895691 872.81079227 777.96839685 874.57763672 776.95727539 C876.78280767 775.69612148 878.99001493 774.43851816 881.19970703 773.18530273 C900.02395145 762.39910409 912.78624062 751.0588073 922 731 C922.32155687 730.40290086 922.64311375 729.80580173 922.97441477 729.19060868 C927.78725688 718.91057212 927.43070702 707.38016942 927.38768005 696.29582214 C927.39185989 694.53058752 927.39734095 692.76535558 927.40399987 691.00012857 C927.41838804 686.18046213 927.41423057 681.36096766 927.40683305 676.54129207 C927.40208718 671.33119746 927.41462378 666.1211393 927.42485046 660.91105652 C927.44201629 650.71590518 927.44288303 640.52081555 927.43763756 630.32565352 C927.43359034 622.03566709 927.43504598 613.74569884 927.44038582 605.45571327 C927.44113424 604.2742396 927.44188266 603.09276592 927.44265376 601.87549001 C927.4441853 599.47504565 927.44572365 597.07460129 927.44726873 594.67415694 C927.46098587 572.18046739 927.45556171 549.68681266 927.44408352 527.19312391 C927.43415298 506.63470414 927.44709015 486.07637439 927.47101771 465.5179685 C927.49542641 444.38623843 927.50501216 423.25455025 927.49836498 402.12280637 C927.49487658 390.26790678 927.4970798 378.41307639 927.51461601 366.55818748 C927.52936015 356.4659782 927.52994453 346.37388686 927.5125451 336.28167983 C927.50405082 331.13738156 927.50184707 325.99329378 927.51719666 320.84900665 C927.53110066 316.13058916 927.52620761 311.41256138 927.50695742 306.6941661 C927.50321454 304.99643578 927.50606939 303.29867382 927.51656907 301.60097184 C927.6377274 280.49299087 922.42789457 262.03099397 908 246 C907.43152344 245.32710937 906.86304688 244.65421875 906.27734375 243.9609375 C895.45835814 232.02438634 878.84858238 224.98899594 864.99371338 217.12158203 C857.9662259 213.13081884 850.97249277 209.08633317 844 205 C835.40504087 199.96773682 826.77679887 194.99624041 818.125 190.0625 C801.25262232 180.43967441 784.39019831 170.79897586 767.67333984 160.90771484 C760.36516872 156.59920543 752.98721489 152.41245673 745.6164856 148.21231079 C736.23988511 142.86790747 726.9022608 137.46072417 717.58764648 132.00878906 C711.24660688 128.30072721 704.8836819 124.63411305 698.5 121 C691.07768548 116.7738336 683.68602576 112.49822275 676.3125 108.1875 C664.65906578 101.37476649 652.97044367 94.62430544 641.2734375 87.88671875 C638.0352484 86.0203162 634.79860562 84.15126237 631.5625 82.28125 C620.39061066 75.82666336 609.20593382 69.39526659 598 63 C590.02677062 58.44964942 582.0587068 53.89071246 574.10717773 49.30249023 C571.96184152 48.06461552 569.81552724 46.82843424 567.66821289 45.59399414 C562.1497914 42.4173584 556.65607042 39.20585101 551.19140625 35.9375 C530.01005878 22.95026895 530.01005878 22.95026895 506 18 C504.90816406 17.93941406 503.81632812 17.87882812 502.69140625 17.81640625 C477.31479148 16.94499284 457.57394029 30.65872603 436.41113281 43.01220703 Z " fill="#FEFEFE" transform="translate(0,0)"/>
<path d="M0 0 C1.16982422 0.00966797 1.16982422 0.00966797 2.36328125 0.01953125 C19.30594024 0.90778716 34.90218241 11.66863866 49 20 C50.96255071 21.14492948 52.9260889 22.28816802 54.890625 23.4296875 C58.87988278 25.74913851 62.86528464 28.07499614 66.84765625 30.40625 C82.80404291 39.73812562 98.84689159 48.92030459 114.9041748 58.0770874 C123.93922381 63.23104928 132.93508048 68.44903412 141.91137695 73.70458984 C149.68365821 78.24846437 157.4919016 82.72755719 165.3125 87.1875 C180.11027076 95.62748469 194.85149408 104.1597703 209.5625 112.75 C225.86867448 122.27078221 242.22008848 131.71285857 258.625 141.0625 C265.96478732 145.2456606 273.27103568 149.48320945 280.5625 153.75 C289.3439087 158.88854413 298.16014111 163.96297916 307 169 C316.71698205 174.53741369 326.4016046 180.12688125 336.05371094 185.77685547 C342.3254212 189.44629579 348.6133674 193.08600327 354.91357422 196.70629883 C359.25756009 199.20442447 363.59553938 201.7128271 367.93164062 204.22460938 C369.92855171 205.38004679 371.92716553 206.53254804 373.92773438 207.68164062 C393.1841904 218.76381817 393.1841904 218.76381817 401 227 C401.93972656 227.94552734 401.93972656 227.94552734 402.8984375 228.91015625 C418.01532699 244.9842287 421.31205282 264.23726397 421.26069641 285.36360168 C421.26371986 287.12838343 421.26761031 288.89316386 421.27228898 290.657942 C421.28255278 295.49014683 421.28039127 300.32227733 421.27610838 305.15448821 C421.27363822 310.37275019 421.28265895 315.59099442 421.29014587 320.80924988 C421.30288692 331.02585345 421.30468729 341.24243074 421.30234561 351.45904092 C421.30056159 359.76485378 421.30231391 368.07065866 421.30657005 376.37647057 C421.30716524 377.55921688 421.30776043 378.74196319 421.30837366 379.9605503 C421.30958543 382.36341646 421.31079956 384.76628261 421.31201603 387.16914877 C421.32288934 409.69706329 421.3207301 432.22496284 421.31463119 454.75287821 C421.30946253 475.35229881 421.32071652 495.95167212 421.33972941 516.55108336 C421.35911161 537.71320942 421.36736311 558.87531311 421.36360615 580.03744811 C421.36169466 591.91408354 421.3641767 603.79067872 421.37832069 615.6673069 C421.39024033 625.77832088 421.39163282 635.88926983 421.37953053 646.00028471 C421.37364591 651.15631043 421.37253093 656.31221724 421.38453293 661.46823502 C421.39540521 666.19395564 421.39227233 670.91945826 421.37827124 675.64516874 C421.37562803 677.34899285 421.37797899 679.05283412 421.38600711 680.75664137 C421.44240537 693.62569101 420.41372585 705.6635839 414.25 717.25 C413.90291992 717.92329346 413.55583984 718.59658691 413.19824219 719.2902832 C410.34812383 724.67088654 406.98611009 729.39699192 403 734 C402.39752441 734.7849585 401.79504883 735.56991699 401.17431641 736.37866211 C394.41593668 744.52650886 385.00401732 749.56792861 375.875 754.625 C374.00503863 755.67471972 372.13694239 756.72771115 370.26882935 757.78071594 C369.00694682 758.49163181 367.74447506 759.20150279 366.48141479 759.9103241 C360.57332906 763.22756067 354.71951478 766.63459908 348.875 770.0625 C337.37212924 776.79353346 325.83075465 783.45656411 314.28222656 790.10888672 C308.85340055 793.2368015 303.42682751 796.36861966 298 799.5 C295.83984643 800.74609839 293.67969017 801.99219214 291.51953125 803.23828125 C287.12040925 805.77615993 282.72205679 808.31536583 278.32421875 810.85546875 C268.35352185 816.61308183 258.37865951 822.36231954 248.375 828.0625 C241.03517104 832.24558642 233.72896334 836.48321003 226.4375 840.75 C217.6560913 845.88854413 208.83985889 850.96297916 200 856 C190.27874793 861.53984704 180.59105119 867.13374939 170.93310547 872.78344727 C160.41652145 878.93335892 149.86085599 885.01491822 139.30419922 891.09570312 C135.97385748 893.01506662 132.64490852 894.93682353 129.31640625 896.859375 C119.34856684 902.61613159 109.3760793 908.36365676 99.375 914.0625 C90.98951759 918.84252943 82.6471457 923.69381747 74.31445312 928.56518555 C64.50932418 934.29456515 54.67757705 939.97710245 44.83203125 945.63671875 C41.42117372 947.59833014 38.01936944 949.57219118 34.63671875 951.58203125 C16.64353664 962.22648355 -3.66117996 966.57644055 -24.40649414 961.92041016 C-37.2225389 958.36949313 -48.65258999 950.69978218 -60 944 C-62.006788 942.83157197 -64.0145775 941.66486208 -66.0234375 940.5 C-69.9934325 938.19489443 -73.95786773 935.88065445 -77.91796875 933.55859375 C-93.84428554 924.22727027 -109.86969965 915.06668894 -125.9041748 905.9229126 C-134.93922381 900.76895072 -143.93508048 895.55096588 -152.91137695 890.29541016 C-160.68365621 885.7515368 -168.49183116 881.27231684 -176.3125 876.8125 C-185.60047063 871.51578396 -194.87355678 866.19515905 -204.12109375 860.828125 C-208.85998465 858.07836155 -213.60719242 855.3431235 -218.35449219 852.60791016 C-227.87788448 847.12072851 -237.38821848 841.612746 -246.875 836.0625 C-256.14560752 830.64035929 -265.45936754 825.29675957 -274.79046631 819.97976685 C-283.86778636 814.80621213 -292.90571533 809.56857846 -301.921875 804.2890625 C-309.58573974 799.80833735 -317.28685835 795.39505776 -325 791 C-334.71412771 785.46419664 -344.39671645 779.87770886 -354.04492188 774.22753906 C-360.38443349 770.517172 -366.74472876 766.84512641 -373.1171875 763.19165039 C-421.22754474 735.57749976 -421.22754474 735.57749976 -430.11372715 707.47825199 C-432.89354569 697.18331408 -433.56746834 687.6695108 -433.50120544 677.04222107 C-433.5051077 675.28605786 -433.51075549 673.52989782 -433.51797634 671.77374512 C-433.53261609 666.99307032 -433.52261873 662.21272876 -433.50823963 657.43206513 C-433.49706793 652.25885284 -433.50909279 647.08568495 -433.51808167 641.91247559 C-433.53197383 631.79625053 -433.52448787 621.68015078 -433.50940608 611.56393176 C-433.49249697 599.77059026 -433.4957624 587.97727956 -433.49950016 576.18392969 C-433.50537131 555.13504573 -433.49123609 534.08622169 -433.46655273 513.03735352 C-433.44263113 492.63563796 -433.43555065 472.23400245 -433.44604492 451.83227539 C-433.45746653 429.58804046 -433.45936906 407.3438425 -433.44494683 385.099608 C-433.44342107 382.7255704 -433.44190071 380.3515328 -433.44038582 377.97749519 C-433.439628 376.80957881 -433.43887019 375.64166244 -433.43808941 374.43835465 C-433.43335644 366.22728878 -433.43519099 358.01623948 -433.43945122 349.80517387 C-433.44438913 339.79280108 -433.43834332 329.78050379 -433.41855692 319.76814824 C-433.40871794 314.66449599 -433.40354301 309.56095847 -433.41144943 304.45730019 C-433.41855089 299.77734718 -433.41159815 295.09762477 -433.3938458 290.41770197 C-433.3898301 288.7328683 -433.39075224 287.04801332 -433.39736467 285.36318784 C-433.4463494 271.70348399 -432.57257358 258.29707316 -426 246 C-425.44505859 244.89785156 -425.44505859 244.89785156 -424.87890625 243.7734375 C-421.85699273 238.00703203 -418.20378607 232.96082382 -414 228 C-413.21109375 227.03126953 -413.21109375 227.03126953 -412.40625 226.04296875 C-405.69813582 218.55732315 -396.59691868 213.97732207 -388 209 C-386.98921387 208.41234863 -385.97842773 207.82469727 -384.93701172 207.21923828 C-378.32191101 203.37688626 -371.69207189 199.56065408 -365.05615234 195.75439453 C-360.82369753 193.32473961 -356.59819586 190.88320431 -352.375 188.4375 C-351.62839111 188.00550293 -350.88178223 187.57350586 -350.11254883 187.12841797 C-345.83707031 184.65211035 -341.56849328 182.16432382 -337.3046875 179.66796875 C-327.40804959 173.8754632 -317.49483607 168.12172036 -307.5 162.5 C-298.679797 157.53858877 -289.92087809 152.48058899 -281.18701172 147.36889648 C-270.57964107 141.16172807 -259.93175522 135.02558338 -249.28222656 128.89111328 C-243.85340058 125.76319852 -238.42680719 122.63141552 -233 119.5 C-230.83334417 118.24998121 -228.6666775 116.99998122 -226.5 115.75 C-225.4275 115.13125 -224.355 114.5125 -223.25 113.875 C-176.66666667 87 -130.08333333 60.125 -83.5 33.25 C-82.42645264 32.63044434 -81.35290527 32.01088867 -80.24682617 31.37255859 C-78.09144367 30.12947387 -75.93536175 28.88760104 -73.77856445 27.64697266 C-68.7700008 24.7640463 -63.76854998 21.87086109 -58.79293823 18.93145752 C-57.0518959 17.90370727 -55.30854137 16.87999331 -53.56445312 15.85742188 C-51.39313454 14.58276117 -49.22608007 13.3007936 -47.06445312 12.00976562 C-31.61107921 2.96949194 -17.79137274 -0.5726413 0 0 Z M-21.5 66.125 C-23.14270874 67.07354858 -23.14270874 67.07354858 -24.81860352 68.04125977 C-28.22208668 70.01138905 -31.61139868 72.00440795 -35 74 C-37.01867116 75.17465641 -39.0381703 76.34789137 -41.05859375 77.51953125 C-45.0142823 79.81679524 -48.96425539 82.12346649 -52.91015625 84.4375 C-59.21570419 88.1321331 -65.54294436 91.78852681 -71.875 95.4375 C-73.49523071 96.37130493 -73.49523071 96.37130493 -75.14819336 97.32397461 C-77.33796334 98.58576826 -79.52782355 99.84740534 -81.71777344 101.10888672 C-87.14659942 104.23680148 -92.57319281 107.36858448 -98 110.5 C-100.16665583 111.75001879 -102.3333225 113.00001878 -104.5 114.25 C-105.5725 114.86875 -106.645 115.4875 -107.75 116.125 C-195.5 166.75 -195.5 166.75 -198.75048828 168.62524414 C-200.91557071 169.87435518 -203.08060982 171.12354129 -205.24560547 172.37280273 C-210.68615706 175.51202309 -216.12747216 178.64990563 -221.5703125 181.78515625 C-232.02206279 187.80747375 -242.46293115 193.84680257 -252.875 199.9375 C-261.51282001 204.98838019 -270.1831964 209.98024353 -278.875 214.9375 C-297.32360487 225.45977704 -315.73292696 236.04997723 -334.06079102 246.78149414 C-339.24631063 249.81741468 -344.4431638 252.83092859 -349.66015625 255.8125 C-350.75247559 256.44019287 -351.84479492 257.06788574 -352.97021484 257.71459961 C-355.0593285 258.91451623 -357.15192252 260.10840099 -359.24853516 261.29516602 C-367.37269301 265.81799455 -367.37269301 265.81799455 -373 273 C-373.09831173 275.2403259 -373.12920878 277.4836811 -373.13142776 279.72616196 C-373.1334804 280.42903552 -373.13553303 281.13190908 -373.13764787 281.85608184 C-373.14334768 284.23510613 -373.14185697 286.61407307 -373.14044189 288.99310303 C-373.14302383 290.70647062 -373.14603651 292.4198376 -373.1494453 294.13320374 C-373.15753881 298.86015908 -373.15930617 303.58709925 -373.16004276 308.31406069 C-373.16188925 313.40485322 -373.16943455 318.49563782 -373.17617798 323.58642578 C-373.1897787 334.72684972 -373.19578878 345.86727006 -373.20018864 357.00770092 C-373.20294823 363.95974746 -373.20718507 370.9117926 -373.21169281 377.8638382 C-373.22388795 397.1000192 -373.23418665 416.33619909 -373.2375679 435.57238388 C-373.23778747 436.80433055 -373.23800703 438.03627721 -373.23823325 439.3055556 C-373.23845153 440.540505 -373.23866981 441.77545441 -373.2388947 443.04782653 C-373.23933817 445.55043904 -373.23978474 448.05305155 -373.24023438 450.55566406 C-373.2404558 451.79705494 -373.24067723 453.03844582 -373.24090537 454.31745461 C-373.24485425 474.43712112 -373.2623099 494.55675144 -373.2855939 514.67640397 C-373.30928892 535.31730421 -373.32176892 555.95818628 -373.32293582 576.59910035 C-373.32385364 588.19450236 -373.32963289 599.78985723 -373.34775543 611.38524628 C-373.36313151 621.25839862 -373.36829167 631.13148924 -373.36001733 641.00465128 C-373.35610192 646.04431813 -373.35708376 651.0838606 -373.37107468 656.12351227 C-373.38376032 660.73507332 -373.38266325 665.34641585 -373.37048396 669.95797637 C-373.36851767 671.62827008 -373.37164817 673.29857899 -373.38032833 674.9688513 C-373.39136805 677.23632551 -373.38397057 679.50302129 -373.3719368 681.77047348 C-373.37253389 683.03082027 -373.37313097 684.29116706 -373.37374616 685.58970618 C-372.87975058 690.09723098 -371.56821138 693.59290197 -368.15356445 696.65673828 C-367.459646 697.08196777 -366.76572754 697.50719727 -366.05078125 697.9453125 C-364.85122803 698.69022949 -364.85122803 698.69022949 -363.62744141 699.45019531 C-362.76038574 699.96163086 -361.89333008 700.47306641 -361 701 C-360.1032959 701.53463867 -359.2065918 702.06927734 -358.28271484 702.62011719 C-355.26397786 704.3952395 -352.22850237 706.13831162 -349.1875 707.875 C-348.06166504 708.52138428 -346.93583008 709.16776855 -345.77587891 709.83374023 C-338.65656695 713.92018225 -331.52463693 717.98461411 -324.39526367 722.0534668 C-323.81489349 722.38470551 -323.23452332 722.71594421 -322.63656616 723.05722046 C-321.45842766 723.72955316 -320.28022494 724.40177332 -319.10195923 725.07388306 C-310.01477031 730.25836018 -300.96313471 735.50115336 -291.93261719 740.78369141 C-281.41625445 746.93362132 -270.86069816 753.01500913 -260.30419922 759.09570312 C-256.97385748 761.01506662 -253.64490852 762.93682353 -250.31640625 764.859375 C-240.20309467 770.70011486 -230.08436253 776.53021169 -219.9375 782.3125 C-213.91061342 785.74751016 -207.90676678 789.21583603 -201.9375 792.75 C-194.48280233 797.1628695 -186.96395596 801.46113704 -179.4375 805.75 C-169.57088459 811.37300212 -159.73731384 817.04813473 -149.93481445 822.7824707 C-139.41026075 828.93696148 -128.84676746 835.02337229 -118.28222656 841.10888672 C-112.85340055 844.2368015 -107.42682751 847.36861966 -102 850.5 C-99.83984643 851.74609839 -97.67969017 852.99219214 -95.51953125 854.23828125 C-91.12040925 856.77615993 -86.72205679 859.31536583 -82.32421875 861.85546875 C-72.35352199 867.61308175 -62.37867344 873.36234406 -52.375 879.0625 C-42.60788065 884.62866699 -32.89871802 890.29241383 -23.1953125 895.96875 C-22.28942383 896.49082031 -21.38353516 897.01289062 -20.45019531 897.55078125 C-18.97591918 898.42277239 -17.51949601 899.32776264 -16.10449219 900.29296875 C-12.05091366 902.98747576 -8.55843005 903.78979233 -3.78515625 903.57470703 C2.0679543 902.3669386 6.96405271 899.02377627 12 895.9375 C13.23290438 895.20425802 14.46714414 894.47325725 15.70263672 893.74438477 C18.2397921 892.24444094 20.77021164 890.7340152 23.29589844 889.21484375 C28.85952373 885.87616184 34.496249 882.66466775 40.125 879.4375 C42.27393088 878.1974692 44.42236849 876.9565832 46.5703125 875.71484375 C53.04510022 871.97348344 59.52236343 868.23642517 66 864.5 C68.1666775 863.25001878 70.33334417 862.00001879 72.5 860.75 C163.50000001 808.24999999 163.50000001 808.24999999 166.75048828 806.37475586 C168.91557071 805.12564482 171.08060982 803.87645871 173.24560547 802.62719727 C178.68615706 799.48797691 184.12747216 796.35009437 189.5703125 793.21484375 C200.06232094 787.16944841 210.54481676 781.10889781 221 775 C232.55012389 768.25133525 244.13485821 761.56365056 255.7265625 754.88671875 C258.9647516 753.0203162 262.20139438 751.15126237 265.4375 749.28125 C276.05941779 743.14453619 286.69201165 737.02763853 297.34823608 730.95074463 C307.76848192 725.00833549 318.16544469 719.02847765 328.51123047 712.95703125 C333.17820996 710.2192807 337.85549731 707.50713449 342.57421875 704.859375 C343.44941162 704.36477783 344.32460449 703.87018066 345.22631836 703.3605957 C346.85123528 702.44431044 348.48065315 701.53593864 350.11547852 700.63745117 C354.99593969 697.87413242 358.42686807 695.14626386 361 690 C361.099209 687.75448541 361.13103737 685.50592351 361.13422108 683.25822067 C361.13657331 682.55365874 361.13892554 681.8490968 361.14134905 681.1231845 C361.14805949 678.73841885 361.14758021 676.35370743 361.14717102 673.96893311 C361.15046837 672.25144055 361.15419367 670.53394877 361.1583125 668.81645799 C361.16835523 664.07810292 361.17205294 659.33976053 361.17470181 654.60139632 C361.17859813 649.4983324 361.1881769 644.39527857 361.19691467 639.29222107 C361.21669791 626.95921667 361.22674755 614.62621143 361.23564246 602.29319513 C361.24002223 596.4901228 361.24538984 590.6870514 361.25063133 584.8839798 C361.2676453 565.60147669 361.28214054 546.31897416 361.28938007 527.03646469 C361.29129007 522.0300064 361.29321039 517.02354812 361.29516602 512.01708984 C361.29564976 510.77270835 361.2961335 509.52832686 361.2966319 508.24623683 C361.30493612 488.07805972 361.33027893 467.90994185 361.36274669 447.74179062 C361.39578491 427.05117008 361.41382589 406.36057967 361.41702431 385.6699326 C361.41919239 374.04656761 361.42798452 362.42328899 361.45348549 350.79994965 C361.47514827 340.90299729 361.48326474 331.0061523 361.47351871 321.10917893 C361.46896118 316.05732305 361.47094432 311.00568889 361.49028015 305.95386314 C361.50782118 301.33114545 361.50698821 296.7088127 361.49138286 292.08609143 C361.48899295 290.41175749 361.49340149 288.73739752 361.50521151 287.06310353 C361.52025519 284.78997964 361.51071176 282.51823306 361.49498463 280.24514389 C361.49596144 278.98175934 361.49693824 277.71837478 361.49794465 276.41670585 C360.76613212 271.395288 358.60711486 268.20460901 354.57177734 265.17993164 C353.21753662 264.42764282 353.21753662 264.42764282 351.8359375 263.66015625 C350.29679688 262.79003906 350.29679688 262.79003906 348.7265625 261.90234375 C347.62054687 261.29519531 346.51453125 260.68804687 345.375 260.0625 C344.2074916 259.40774867 343.04083914 258.75146899 341.875 258.09375 C339.45476339 256.72990694 337.03099406 255.37268192 334.60449219 254.02001953 C329.03454764 250.9078424 323.52044425 247.69886044 318 244.5 C315.83359391 243.24954845 313.66692635 241.99954978 311.5 240.75 C220.49999999 188.24999999 220.49999999 188.24999999 217.2487793 186.37426758 C215.08621417 185.1266526 212.92361661 183.87909384 210.76098633 182.6315918 C205.28129629 179.47056551 199.80220642 176.30850691 194.32421875 173.14453125 C184.35352117 167.38691778 174.37860259 161.63778107 164.375 155.9375 C155.98067687 151.15243103 147.62960353 146.29586808 139.28808594 141.41943359 C128.64434755 135.2001045 117.96428369 129.04432083 107.28222656 122.89111328 C101.85340058 119.76319852 96.42680719 116.63141552 91 113.5 C88.83334417 112.24998121 86.6666775 110.99998122 84.5 109.75 C45.5 87.25 45.5 87.25 42.24414062 85.37158203 C40.09704864 84.13289998 37.94991386 82.8942921 35.80273438 81.65576172 C30.70411191 78.7146665 25.60594704 75.77278587 20.50927734 72.82830811 C18.08952335 71.43041399 15.66952737 70.03293911 13.24951172 68.63549805 C11.53198948 67.64347676 9.81481948 66.65084571 8.09765625 65.65820312 C7.06511719 65.06201172 6.03257812 64.46582031 4.96875 63.8515625 C4.05544922 63.32385254 3.14214844 62.79614258 2.20117188 62.25244141 C-6.85985281 57.09682288 -13.30318903 61.25372676 -21.5 66.125 Z " fill="#E57311" transform="translate(506,18)"/>
<path d="M0 0 C1.4865786 -0.01418472 1.4865786 -0.01418472 3.00318909 -0.02865601 C4.06682175 -0.02258331 5.13045441 -0.01651062 6.22631836 -0.01025391 C7.32334579 -0.01312408 8.42037323 -0.01599426 9.55064392 -0.01895142 C11.86807777 -0.02099176 14.18552884 -0.015464 16.50292969 -0.00292969 C20.05629822 0.01313899 23.60853188 -0.00278805 27.16186523 -0.02197266 C29.41251879 -0.01999052 31.66317164 -0.01614747 33.91381836 -0.01025391 C34.97947525 -0.0163266 36.04513214 -0.02239929 37.14308167 -0.02865601 C38.1309819 -0.01919952 39.11888214 -0.00974304 40.13671875 0 C41.00623672 0.00238678 41.8757547 0.00477356 42.7716217 0.00723267 C45.48521994 0.47037292 46.41251216 1.16512526 48.00366211 3.38818359 C47.41998303 11.53724154 43.80408642 19.62880142 40.62866211 27.07568359 C38.74221005 31.50159035 37.06913004 35.9551601 35.49584961 40.50146484 C32.75842313 48.338278 29.90967609 56.13205524 27.03491211 63.91943359 C26.58828217 65.12940506 26.14165222 66.33937653 25.68148804 67.58601379 C24.05570565 71.98735041 22.4283377 76.3880991 20.80072021 80.78875732 C13.91984238 99.34433549 13.91984238 99.34433549 7.26025391 117.97993469 C3.44239201 128.88113222 -0.54556525 139.72215547 -4.49633789 150.57568359 C-4.93431702 151.77984924 -5.37229614 152.98401489 -5.82354736 154.22467041 C-12.00684276 171.22416035 -18.21846382 188.21287282 -24.50610352 205.17407227 C-27.00733717 211.92922029 -29.46780572 218.69480701 -31.84790039 225.49365234 C-34.19149085 232.18173577 -36.62224412 238.83482844 -39.09008789 245.47802734 C-39.44837677 246.44274963 -39.80666565 247.40747192 -40.17581177 248.40142822 C-41.65173089 252.37203016 -43.12931798 256.34200266 -44.61010742 260.31079102 C-48.60714219 271.03027155 -52.55677254 281.7471959 -56.0760498 292.63475037 C-57.37635566 296.64040281 -58.82090325 300.52447645 -60.49633789 304.38818359 C-62.62798259 309.30736366 -64.34047913 314.29509185 -65.99633789 319.38818359 C-67.63849451 324.4346592 -69.32707289 329.38654067 -71.43383789 334.26318359 C-73.56939844 339.21471988 -75.37255076 344.22889953 -77.12133789 349.32568359 C-80.45868583 359.03943267 -84.10333582 368.62369434 -87.79418945 378.20800781 C-90.16117262 384.39714008 -92.43621017 390.5961247 -94.52758789 396.88427734 C-94.92413574 398.07327637 -95.32068359 399.26227539 -95.72924805 400.48730469 C-96.47274826 402.74196352 -97.20234473 405.00127051 -97.91577148 407.265625 C-98.24915527 408.2767334 -98.58253906 409.2878418 -98.92602539 410.32958984 C-99.20687988 411.21332275 -99.48773438 412.09705566 -99.77709961 413.00756836 C-101.47652161 416.32576299 -102.69485754 417.5606854 -105.99633789 419.38818359 C-109.85790626 419.95262961 -113.67435328 419.90079935 -117.57055664 419.84912109 C-118.69073685 419.84820465 -119.81091705 419.84728821 -120.96504211 419.84634399 C-123.32781219 419.84031114 -125.69057472 419.82457477 -128.05322266 419.79980469 C-131.68102989 419.76321192 -135.3078182 419.75878598 -138.93579102 419.75927734 C-141.23072177 419.74944946 -143.52564558 419.7377939 -145.82055664 419.72412109 C-146.91011154 419.72189545 -147.99966644 419.7196698 -149.12223816 419.71737671 C-150.12700699 419.704617 -151.13177582 419.6918573 -152.16699219 419.67871094 C-153.05347946 419.67108734 -153.93996674 419.66346375 -154.85331726 419.65560913 C-156.99633789 419.38818359 -156.99633789 419.38818359 -158.99633789 417.38818359 C-158.82827982 409.62016625 -155.78432051 402.60011386 -153.12133789 395.38818359 C-152.6740332 394.15583984 -152.22672852 392.92349609 -151.76586914 391.65380859 C-149.78217634 386.2001163 -147.76649267 380.75902336 -145.72070312 375.32836914 C-144.54084744 372.16816922 -143.39613122 368.99528012 -142.24584961 365.82421875 C-140.67073217 361.49279967 -139.08564872 357.16506469 -137.50024414 352.83740234 C-136.85245414 351.06852343 -136.20466774 349.2996432 -135.55688477 347.53076172 C-134.55902109 344.80613663 -133.56099573 342.08157126 -132.5625 339.35717773 C-128.99498642 329.62239653 -125.43831303 319.88489234 -121.97070312 310.11401367 C-120.94776133 307.2522885 -119.88397197 304.40873432 -118.80493164 301.56787109 C-117.27594304 297.44624966 -115.83303325 293.29323772 -114.37524414 289.14599609 C-113.37434688 286.35936862 -112.28582559 283.61825449 -111.16821289 280.87646484 C-108.72276131 274.80729343 -106.56011333 268.64061312 -104.39257812 262.46829224 C-103.18604242 259.03358267 -101.97223666 255.60144701 -100.75805664 252.16943359 C-100.51973114 251.49558121 -100.28140564 250.82172882 -100.03585815 250.12745667 C-96.67415834 240.63703008 -93.18568427 231.19363701 -89.63305664 221.77319336 C-87.83934699 216.98988736 -86.10405105 212.18604453 -84.37133789 207.38037109 C-83.66302932 205.41893637 -82.95469499 203.45751095 -82.24633789 201.49609375 C-81.87895508 200.47831848 -81.51157227 199.46054321 -81.13305664 198.41192627 C-75.35900228 182.41763448 -69.5662901 166.43091769 -63.69335938 150.47265625 C-60.40911226 141.54077336 -57.17712203 132.59079353 -53.98657227 123.625 C-53.65077148 122.68575684 -53.3149707 121.74651367 -52.96899414 120.77880859 C-52.68290283 119.97475586 -52.39681152 119.17070312 -52.10205078 118.34228516 C-51.14166339 115.77644558 -50.13470199 113.2391124 -49.10839844 110.69921875 C-47.02592768 105.51509678 -45.10956722 100.28178823 -43.23071289 95.02099609 C-42.87995697 94.04374573 -42.52920105 93.06649536 -42.16781616 92.05963135 C-41.41594381 89.96455371 -40.66481372 87.86920956 -39.91436768 85.77362061 C-37.91790193 80.20068839 -35.9134398 74.63063067 -33.91040039 69.06005859 C-33.08647536 66.76775232 -32.26258212 64.47543461 -31.4387207 62.18310547 C-30.8301825 60.49012329 -30.8301825 60.49012329 -30.20935059 58.76293945 C-29.41098559 56.54178633 -28.61272434 54.32059592 -27.8145752 52.09936523 C-25.60055581 45.93928477 -23.38156465 39.78103958 -21.15515137 33.62542725 C-20.4712928 31.73207812 -19.78921607 29.83808437 -19.10900879 27.94342041 C-18.16196286 25.30614346 -17.20879015 22.67115707 -16.25415039 20.03662109 C-15.98194672 19.27416077 -15.70974304 18.51170044 -15.42929077 17.72613525 C-8.98012469 0.02462742 -8.98012469 0.02462742 0 0 Z " fill="#E57411" transform="translate(446.996337890625,289.61181640625)"/>
<path d="M0 0 C1.48669189 -0.00945648 1.48669189 -0.00945648 3.00341797 -0.019104 C4.60660889 -0.01303131 4.60660889 -0.01303131 6.2421875 -0.00683594 C7.34062988 -0.00874939 8.43907227 -0.01066284 9.57080078 -0.01263428 C11.89420806 -0.01399584 14.21762295 -0.01030141 16.54101562 -0.00195312 C20.10303795 0.00874656 23.66455591 -0.00184963 27.2265625 -0.01464844 C29.48177195 -0.01332684 31.73698108 -0.01076444 33.9921875 -0.00683594 C35.06098145 -0.0108844 36.12977539 -0.01493286 37.23095703 -0.019104 C38.22208496 -0.01279968 39.21321289 -0.00649536 40.234375 0 C41.10690918 0.00159119 41.97944336 0.00318237 42.87841797 0.00482178 C45.1171875 0.25878906 45.1171875 0.25878906 48.1171875 2.25878906 C47.5196402 8.35097057 45.73121247 13.65437096 43.6171875 19.37988281 C43.26537918 20.34893051 42.91357086 21.31797821 42.55110168 22.31639099 C41.4130863 25.44548372 40.26533803 28.57090264 39.1171875 31.69628906 C38.3337385 33.8440596 37.55078027 35.99200922 36.76831055 38.14013672 C32.53289848 49.75055279 28.25588015 61.34501826 23.88134766 72.90380859 C21.59725708 78.94235185 19.41078722 85.00873568 17.2824707 91.10375977 C15.44401358 96.36168342 13.54465222 101.59535743 11.6171875 106.82128906 C11.17415283 108.02289673 11.17415283 108.02289673 10.72216797 109.2487793 C9.36028519 112.93186558 7.9878141 116.61025909 6.5859375 120.27832031 C3.40013798 128.63090742 0.4678398 137.0364965 -2.25976562 145.55126953 C-3.72377347 150.0530059 -5.34166759 154.42364859 -7.20581055 158.77612305 C-9.88679158 165.166604 -12.23051723 171.64660221 -14.5234375 178.18457031 C-15.40049432 180.66238101 -16.27844109 183.13985026 -17.15820312 185.61669922 C-17.38205059 186.24742309 -17.60589806 186.87814695 -17.83652878 187.52798367 C-20.25373221 194.32561292 -22.74287422 201.0964308 -25.2421875 207.86425781 C-25.90776672 209.66710739 -25.90776672 209.66710739 -26.58679199 211.50637817 C-27.93435483 215.15342697 -29.2833588 218.79993952 -30.6328125 222.44628906 C-37.86959124 241.95368631 -37.86959124 241.95368631 -44.87478638 261.5448761 C-47.34467661 268.60206168 -49.92316433 275.61805506 -52.5078125 282.63378906 C-53.21122132 284.5461818 -53.91431347 286.45869063 -54.61727905 288.37124634 C-55.24905177 290.08964883 -55.88157524 291.80777524 -56.51416016 293.52587891 C-57.59892007 296.48449095 -58.67743227 299.44515768 -59.75268555 302.40722656 C-61.99833783 308.58665078 -64.27328263 314.75510692 -66.55078125 320.92285156 C-67.45381936 323.37075225 -68.35681265 325.81866947 -69.25976562 328.26660156 C-70.65646673 332.05259948 -72.05357005 335.83844802 -73.45141602 339.62402344 C-80.62898525 359.0641789 -87.7672137 378.51834392 -94.6328125 398.07128906 C-96.18249123 402.3848278 -97.7683637 406.68045556 -99.4453125 410.94628906 C-99.81785156 411.89890625 -100.19039063 412.85152344 -100.57421875 413.83300781 C-102.06544196 416.59733502 -103.21961253 417.62595384 -105.8828125 419.25878906 C-108.28652954 419.63301086 -108.28652954 419.63301086 -110.98681641 419.63110352 C-112.50826767 419.6404467 -112.50826767 419.6404467 -114.06045532 419.64997864 C-115.14909882 419.64076889 -116.23774231 419.63155914 -117.359375 419.62207031 C-118.48097015 419.62256882 -119.60256531 419.62306732 -120.75814819 419.62358093 C-123.12686944 419.62124174 -125.49559324 419.61152243 -127.86425781 419.5949707 C-131.50087548 419.57133415 -135.13676233 419.57441662 -138.7734375 419.58105469 C-141.07292106 419.57547949 -143.37240152 419.56837061 -145.671875 419.55957031 C-147.31091293 419.56093742 -147.31091293 419.56093742 -148.98306274 419.56233215 C-149.99105927 419.55280014 -150.99905579 419.54326813 -152.03759766 419.53344727 C-152.92710114 419.52883987 -153.81660461 419.52423248 -154.73306274 419.51948547 C-156.8828125 419.25878906 -156.8828125 419.25878906 -158.8828125 417.25878906 C-158.61985412 410.45280747 -156.41001168 404.57855322 -154.0078125 398.25878906 C-153.65589844 397.31261719 -153.30398437 396.36644531 -152.94140625 395.39160156 C-151.9301797 392.67745445 -150.90844159 389.9675216 -149.8828125 387.25878906 C-147.59649397 381.2048565 -145.40769321 375.12165101 -143.26171875 369.01660156 C-142.30021266 366.34011175 -141.25555475 363.70992773 -140.17578125 361.07910156 C-137.0866505 353.41168348 -134.39014019 345.59638959 -131.62609863 337.80755615 C-129.95529468 333.09975751 -128.27808268 328.39424192 -126.6015625 323.68847656 C-126.27577209 322.77353424 -125.94998169 321.85859192 -125.61431885 320.91592407 C-123.14347667 313.98010937 -120.65279588 307.05192705 -118.1328125 300.13378906 C-117.8347168 299.31491211 -117.53662109 298.49603516 -117.22949219 297.65234375 C-115.94809168 294.14242063 -114.65249277 290.63849266 -113.3359375 287.14160156 C-111.97704535 283.52830556 -110.67283494 279.89731389 -109.3828125 276.25878906 C-107.01363452 269.57649219 -104.52299509 262.94567336 -102.0078125 256.31738281 C-97.03858085 243.1916435 -92.26443944 230.00524076 -87.6015625 216.76831055 C-85.41958549 210.57538036 -83.22009966 204.39500983 -80.8828125 198.25878906 C-77.91116 190.409298 -74.96368042 182.55789767 -72.1953125 174.63378906 C-69.47311489 166.85830606 -66.65726899 159.11805663 -63.8203125 151.38378906 C-63.58924805 150.75364899 -63.35818359 150.12350891 -63.12011719 149.47427368 C-60.28884483 141.75776647 -57.43634027 134.04938744 -54.5625 126.34863281 C-53.71990046 124.08991063 -52.87735915 121.83116676 -52.03491211 119.5723877 C-51.47631084 118.07468981 -50.91755495 116.57704959 -50.35864258 115.07946777 C-46.56875105 104.91637774 -42.87287993 94.7293851 -39.41723633 84.4465332 C-38.05950351 80.44424073 -36.61435919 76.56230973 -34.859375 72.71582031 C-32.83030562 68.26188417 -31.30327076 63.73075599 -29.8203125 59.07128906 C-26.80988305 49.83086044 -23.54693917 40.69201945 -20.1953125 31.57128906 C-19.96133759 30.93285065 -19.72736267 30.29441223 -19.48629761 29.6366272 C-8.62105599 0.01572169 -8.62105599 0.01572169 0 0 Z " fill="#E57411" transform="translate(365.8828125,289.7412109375)"/>
<path d="M0 0 C2.00720923 0.28674418 4.0085944 0.61866701 6 1 C8.02174216 6.4788317 10.04246784 11.9580376 12.0625 17.4375 C12.52644165 18.69593719 12.52644165 18.69593719 12.99975586 19.97979736 C16.69760968 30.01225413 20.38720433 40.04766925 24.05859375 50.08984375 C24.38980728 50.99578781 24.72102081 51.90173187 25.06227112 52.83512878 C26.65868467 57.20271691 28.25393501 61.57072682 29.84790039 65.93920898 C32.52319648 73.26603316 35.21277044 80.5859242 37.96875 87.8828125 C41.95125887 98.4436499 45.69252702 109.09150578 49.46826172 119.72753906 C53.12214286 130.01459138 56.81308006 140.28019112 60.70092773 150.48144531 C62.48530438 155.31445343 64.07009882 160.19884611 65.62890625 165.109375 C66.70727504 168.3245196 68.00251556 171.42216032 69.328125 174.54296875 C71.97254236 180.81595436 74.26668033 187.18469815 76.50698853 193.61154175 C77.69138055 197.00707508 78.88849074 200.39811493 80.0859375 203.7890625 C80.32852798 204.47634933 80.57111847 205.16363617 80.82106018 205.87174988 C83.25498286 212.7505532 85.77137417 219.59753916 88.3125 226.4375 C88.72886719 227.55858154 89.14523437 228.67966309 89.57421875 229.8347168 C91.2717732 234.39416519 92.97641973 238.9505692 94.7109375 243.49609375 C97.83421178 251.69318137 100.7011635 259.94022192 103.37768555 268.29443359 C104.80476468 272.68314079 106.36698777 276.94617152 108.1875 281.1875 C112.36584433 291.04135641 115.82700961 301.17817914 119.4375 311.25 C120.91386762 315.35991431 122.39193694 319.46921373 123.87109375 323.578125 C124.22738358 324.56822067 124.5836734 325.55831635 124.95075989 326.57841492 C128.22728921 335.66581795 131.61235195 344.70951958 135.0402832 353.74072266 C135.85057991 355.88571689 136.64659314 358.03530038 137.4375 360.1875 C137.70498047 360.88423828 137.97246094 361.58097656 138.24804688 362.29882812 C139.67850381 366.23165096 140.39968818 368.98251662 139 373 C137.35464188 374.64535812 135.44399289 374.15245901 133.17651367 374.17700195 C132.14842087 374.18983719 131.12032806 374.20267242 130.06108093 374.21589661 C128.3814904 374.22697701 128.3814904 374.22697701 126.66796875 374.23828125 C125.52467606 374.246353 124.38138336 374.25442474 123.20344543 374.26274109 C120.77814256 374.27660173 118.35282001 374.28731498 115.92749023 374.29516602 C112.21365462 374.31237878 108.5007088 374.35624863 104.78710938 374.40039062 C102.4349024 374.41051688 100.08268784 374.41903319 97.73046875 374.42578125 C96.05998726 374.45204338 96.05998726 374.45204338 94.35575867 374.47883606 C93.31820938 374.47591049 92.2806601 374.47298492 91.21166992 374.4699707 C90.29979416 374.47583694 89.3879184 374.48170319 88.44841003 374.48774719 C85.22676723 373.84596448 84.06158974 372.49871646 82 370 C80.77075195 367.57177734 80.77075195 367.57177734 79.73828125 364.8359375 C79.34600342 363.80871582 78.95372559 362.78149414 78.54956055 361.72314453 C78.14133057 360.61825684 77.73310059 359.51336914 77.3125 358.375 C76.88042236 357.23015137 76.44834473 356.08530273 76.00317383 354.90576172 C72.54165681 345.65779992 69.27534304 336.34264777 66.13208008 326.98193359 C64.0564195 320.84232211 61.7257514 314.88435119 59.19360352 308.91943359 C57.36027686 304.43530184 55.85877922 299.85933266 54.375 295.25 C53.80095148 293.48389577 53.2254513 291.71826266 52.6484375 289.953125 C52.40270996 289.19161133 52.15698242 288.43009766 51.90380859 287.64550781 C50.68116311 284.06674324 49.34126524 280.53572596 48 277 C44.54990673 267.8849866 41.1710602 258.74860918 37.87109375 249.578125 C37.33048813 248.07638733 37.33048813 248.07638733 36.77896118 246.54431152 C35.28762145 242.39921649 33.79732096 238.25375624 32.31079102 234.10693359 C26.97883325 219.20259759 26.97883325 219.20259759 21.04418945 204.53271484 C19.2439768 200.16624161 17.8146616 195.68310997 16.375 191.1875 C14.48583318 185.32002017 12.46150682 179.65818368 10 174 C9.04034742 171.31803838 8.10483835 168.63374274 7.1875 165.9375 C3.00162169 153.79964546 -1.47965193 141.77032559 -5.93676758 129.73022461 C-9.34972006 120.50685468 -12.71888198 111.27130167 -16 102 C-16.25539551 101.27876953 -16.51079102 100.55753906 -16.77392578 99.81445312 C-16.98259277 99.22470703 -17.19125977 98.63496094 -17.40625 98.02734375 C-17.7671875 97.00769531 -18.128125 95.98804688 -18.5 94.9375 C-18.90605469 93.78894531 -19.31210937 92.64039063 -19.73046875 91.45703125 C-21.38170913 86.96057667 -23.2112351 82.54213512 -25.08203125 78.1328125 C-27.75871106 68.99793076 -24.48927883 61.91468499 -21.1875 53.375 C-20.69072101 52.0623539 -20.19530142 50.74919261 -19.70117188 49.43554688 C-18.66818878 46.69178265 -17.6293184 43.950344 -16.58740234 41.20996094 C-14.99663032 37.00997127 -13.4552321 32.79295964 -11.92578125 28.5703125 C-11.67869919 27.88931488 -11.43161713 27.20831726 -11.17704773 26.50668335 C-10.21669112 23.85907859 -9.25672901 21.21133999 -8.30062866 18.56219482 C-7.64134111 16.7381394 -6.97701244 14.91590847 -6.3125 13.09375 C-5.93738281 12.05927734 -5.56226563 11.02480469 -5.17578125 9.95898438 C-2.02190581 2.02190581 -2.02190581 2.02190581 0 0 Z " fill="#E57412" transform="translate(504,335)"/>
<path d="M0 0 C1.01437637 -0.00630432 2.02875275 -0.01260864 3.0738678 -0.019104 C4.16767258 -0.01505554 5.26147736 -0.01100708 6.38842773 -0.00683594 C8.07294289 -0.00970612 8.07294289 -0.00970612 9.79148865 -0.01263428 C12.16617049 -0.01399581 14.54085978 -0.01030163 16.91552734 -0.00195312 C20.56096002 0.00875657 24.20590097 -0.00185491 27.85131836 -0.01464844 C30.15535591 -0.01332703 32.45939315 -0.01076504 34.76342773 -0.00683594 C36.40717125 -0.01290863 36.40717125 -0.01290863 38.0841217 -0.019104 C39.60095802 -0.00964752 39.60095802 -0.00964752 41.1484375 0 C42.04095718 0.00159119 42.93347687 0.00318237 43.8530426 0.00482178 C46.00952148 0.25878906 46.00952148 0.25878906 48.00952148 2.25878906 C48.57004549 7.2379893 47.16072082 11.0289017 45.19702148 15.50878906 C43.06188418 20.58479937 41.16773717 25.58304037 39.74780273 30.91503906 C38.73386219 34.13389795 37.35131449 37.1633656 36.00952148 40.25878906 C35.13958446 42.50273877 34.28656732 44.75329278 33.44702148 47.00878906 C33.19944092 47.67362305 32.95186035 48.33845703 32.69677734 49.0234375 C32.12801334 50.55210716 31.56012131 52.08110142 30.99291992 53.61035156 C29.87947371 56.60902695 28.760798 59.60573175 27.64233398 62.60253906 C23.50259618 73.71559795 19.42049393 84.83960074 15.55053711 96.04956055 C13.50550681 101.93620659 11.31555911 107.75769917 9.07202148 113.57128906 C3.93689104 126.89139264 -0.76484934 140.37015674 -5.17797852 153.94628906 C-6.32510801 157.42582596 -7.61089846 160.77532965 -9.07250977 164.13378906 C-12.83811074 173.10124087 -16.0633725 182.27161042 -19.35620117 191.4206543 C-20.48456832 194.55487255 -21.61802232 197.68721531 -22.75219727 200.81933594 C-25.8327648 209.34610002 -28.90333183 217.86763483 -31.70922852 226.48925781 C-33.08330998 230.6750585 -34.55866691 234.7416861 -36.29516602 238.79003906 C-39.90816113 247.23439749 -42.89054955 255.91532778 -45.97512817 264.56280518 C-47.95344487 270.10730151 -49.94300998 275.64776057 -51.93188477 281.18847656 C-52.34444016 282.33835052 -52.75699554 283.48822449 -53.18205261 284.67294312 C-57.76154108 297.42601205 -62.40196255 310.15666475 -67.05297852 322.88378906 C-67.43754211 323.93751709 -67.82210571 324.99124512 -68.21832275 326.0769043 C-70.79710154 333.14195312 -73.38800128 340.20243607 -75.99047852 347.25878906 C-76.3964325 348.36105835 -76.80238647 349.46332764 -77.22064209 350.59899902 C-78.45053324 353.9326278 -79.68636574 357.26399257 -80.92407227 360.59472656 C-81.30209488 361.6203067 -81.68011749 362.64588684 -82.06959534 363.70254517 C-82.42303513 364.64971405 -82.77647491 365.59688293 -83.140625 366.57275391 C-83.45031723 367.40737152 -83.76000946 368.24198914 -84.0790863 369.10189819 C-84.99047852 371.25878906 -84.99047852 371.25878906 -86.99047852 374.25878906 C-89.61547852 374.44628906 -89.61547852 374.44628906 -91.99047852 374.25878906 C-95.23824047 367.19980888 -98.09093567 360.015081 -100.86547852 352.75878906 C-101.52628418 351.03511108 -101.52628418 351.03511108 -102.20043945 349.27661133 C-105.11733619 341.63342031 -107.94752463 333.96896522 -110.60375977 326.23144531 C-111.59040219 323.36349928 -112.63963844 320.52597258 -113.72094727 317.69238281 C-114.14875488 316.54878296 -114.14875488 316.54878296 -114.58520508 315.38208008 C-115.12808406 313.93382614 -115.68256724 312.48984267 -116.2512207 311.05151367 C-118.81869169 304.11030642 -117.30986336 298.61717216 -114.87329102 291.84863281 C-114.43766846 290.62917969 -114.0020459 289.40972656 -113.55322266 288.15332031 C-113.07417787 286.83423606 -112.59492337 285.51522795 -112.11547852 284.19628906 C-111.61167016 282.79541697 -111.10834295 281.39437176 -110.60546875 279.99316406 C-106.81077893 269.44071172 -102.95060636 258.91182143 -99.07548523 248.38868713 C-96.04969828 240.16806337 -93.05187129 231.93741457 -90.06079102 223.70410156 C-89.40097481 221.88800385 -89.40097481 221.88800385 -88.72782898 220.03521729 C-86.93852081 215.10943586 -85.14956561 210.18352723 -83.36209106 205.25708008 C-75.14998207 182.62424141 -75.14998207 182.62424141 -71.92407227 174.09082031 C-68.35245521 164.62040684 -64.94742454 155.09032234 -61.52911377 145.5637207 C-59.54508395 140.03528638 -57.5566803 134.50842533 -55.56860352 128.98144531 C-55.17589264 127.8894986 -54.78318176 126.79755188 -54.37857056 125.67251587 C-51.21768008 116.8854337 -48.05029729 108.10074342 -44.86431885 99.32272339 C-44.37311407 97.96887751 -43.88249332 96.61481956 -43.39251709 95.26052856 C-42.7210985 93.40518167 -42.04724367 91.55071696 -41.37329102 89.69628906 C-40.8224585 88.17841797 -40.8224585 88.17841797 -40.26049805 86.62988281 C-39.24784405 83.94193079 -38.19552026 81.28169265 -37.11694336 78.62011719 C-34.78413392 72.81437636 -32.67871432 66.93517928 -30.58422852 61.04003906 C-30.17765015 59.90151489 -29.77107178 58.76299072 -29.35217285 57.58996582 C-28.06314301 53.98021213 -26.77650572 50.36961348 -25.49047852 46.75878906 C-23.79473628 41.99759316 -22.09648755 37.23730223 -20.39672852 32.47753906 C-20.01432007 31.40121216 -19.63191162 30.32488525 -19.23791504 29.21594238 C-8.808845 0.01569045 -8.808845 0.01569045 0 0 Z " fill="#E57411" transform="translate(744.990478515625,289.7412109375)"/>
<path d="M0 0 C2.625 0.3125 2.625 0.3125 4.16088867 2.00097656 C5.73801392 4.49092517 6.70365669 6.82799841 7.67578125 9.609375 C8.22431763 11.15915039 8.22431763 11.15915039 8.78393555 12.74023438 C9.16461182 13.83658203 9.54528809 14.93292969 9.9375 16.0625 C10.74134459 18.3388395 11.54603145 20.61488174 12.3515625 22.890625 C12.93599121 24.54868164 12.93599121 24.54868164 13.53222656 26.24023438 C14.91096651 30.11647735 16.34928433 33.96752473 17.8125 37.8125 C21.66114219 48.00447212 25.32339075 58.26246266 28.6875 68.625 C29.92382003 72.37937594 31.30625815 75.99761022 32.875 79.625 C35.83957989 86.56065296 38.22728289 93.68385496 40.67822266 100.81396484 C43.17045512 108.05027669 45.83200965 115.18679386 48.625 122.3125 C51.61156221 130.05398363 54.54432136 137.75988374 56.80688477 145.74975586 C57.68555673 148.50219381 58.76264872 151.09684503 59.90625 153.75 C62.72121026 160.43329997 65.16094377 167.22173197 67.5625 174.0625 C70.26842193 181.71327925 72.97617255 189.3574713 75.875 196.9375 C77.96488899 202.4359685 79.86063695 207.97315524 81.6875 213.5625 C83.61342873 219.44625541 85.74362277 225.14193786 88.19140625 230.83203125 C90.22232915 235.76269148 92.08786726 240.74893068 93.9375 245.75 C94.29956543 246.71067383 94.66163086 247.67134766 95.03466797 248.66113281 C95.36998535 249.57604492 95.70530273 250.49095703 96.05078125 251.43359375 C96.35411377 252.2527124 96.65744629 253.07183105 96.9699707 253.91577148 C97.684555 256.5304096 97.88470457 258.61526228 97.625 261.3125 C95.11735648 263.82014352 94.27992496 263.5771259 90.81152344 263.61889648 C89.8099823 263.63488388 88.80844116 263.65087128 87.77655029 263.66734314 C86.69013245 263.67270584 85.6037146 263.67806854 84.484375 263.68359375 C83.36943665 263.69262222 82.25449829 263.7016507 81.10577393 263.71095276 C78.74193009 263.72548382 76.37804578 263.73434905 74.01416016 263.73803711 C70.40327632 263.74990705 66.79411527 263.7990453 63.18359375 263.84960938 C60.88802918 263.85907622 58.5924541 263.86631 56.296875 263.87109375 C54.67939362 263.90039223 54.67939362 263.90039223 53.02923584 263.93028259 C44.64225544 263.88002001 44.64225544 263.88002001 41.00805664 261.04248047 C38.87908333 258.60357261 37.7148595 257.12568938 36.82421875 254.07421875 C36.57446289 253.26742676 36.32470703 252.46063477 36.06738281 251.62939453 C35.81827148 250.76169434 35.56916016 249.89399414 35.3125 249 C34.72171111 247.09372561 34.12648629 245.1888216 33.52734375 243.28515625 C33.21909668 242.29789551 32.91084961 241.31063477 32.59326172 240.29345703 C31.01853586 235.44539786 29.19789032 230.69664597 27.375 225.9375 C23.84056006 216.65103673 20.48064362 207.31134629 17.1875 197.9375 C13.34732649 187.01285108 9.31611374 176.18191748 5.11572266 165.3894043 C2.04458823 157.47457145 -0.81578367 149.50601193 -3.58203125 141.48046875 C-5.70723542 135.32114344 -7.91590031 129.19213737 -10.125 123.0625 C-10.50213135 122.01441162 -10.8792627 120.96632324 -11.26782227 119.88647461 C-12.76223452 115.74216292 -14.2583056 111.599836 -15.8203125 107.48046875 C-18.39199205 100.6665719 -20.77160821 93.78024178 -23.19189453 86.91137695 C-23.85713214 85.02464584 -24.52615872 83.139252 -25.1953125 81.25390625 C-25.58992676 80.13701416 -25.98454102 79.02012207 -26.39111328 77.86938477 C-27.13677629 75.41539295 -27.13677629 75.41539295 -28.375 74.3125 C-27.98861654 67.26410114 -25.75511854 61.18531049 -23.296875 54.61328125 C-22.88842346 53.50123825 -22.47997192 52.38919525 -22.05914307 51.24345398 C-20.75571318 47.70097782 -19.44045405 44.1630263 -18.125 40.625 C-17.25575007 38.26655614 -16.38725315 35.90783461 -15.51953125 33.54882812 C-12.26540285 24.71968593 -8.99067232 15.89889951 -5.64941406 7.10229492 C-5.23854553 6.01889328 -4.827677 4.93549164 -4.40435791 3.81925964 C-2.99802983 0.39447761 -2.99802983 0.39447761 0 0 Z " fill="#E57412" transform="translate(465.375,445.6875)"/>
<path d="M0 0 C1.64485382 0.00349709 1.64485382 0.00349709 3.32293701 0.00706482 C5.63268857 0.01678323 7.94241697 0.03852603 10.25195312 0.0715332 C13.79853322 0.12111693 17.34372892 0.13302551 20.890625 0.13867188 C23.13543152 0.1527512 25.38022595 0.16895319 27.625 0.1875 C29.2218161 0.19554405 29.2218161 0.19554405 30.85089111 0.20375061 C32.32317169 0.2277317 32.32317169 0.2277317 33.82519531 0.25219727 C35.12375458 0.26815697 35.12375458 0.26815697 36.44854736 0.28443909 C38.546875 0.55859375 38.546875 0.55859375 40.546875 2.55859375 C40.22965792 8.54897499 38.6797064 13.65963471 36.58203125 19.2421875 C36.12459282 20.49094917 36.12459282 20.49094917 35.65791321 21.76493835 C34.64961863 24.51163158 33.62945537 27.25375824 32.609375 29.99609375 C31.89647283 31.93247629 31.18441242 33.86916891 30.47314453 35.80615234 C28.57057176 40.98156753 26.65818681 46.15330219 24.74359131 51.32427979 C21.51529872 60.04924803 18.30319028 68.78018802 15.09078979 77.51101685 C13.95164703 80.60278885 12.80833259 83.69299109 11.66430664 86.78295898 C8.42226343 95.56156724 5.24180567 104.34206101 2.3359375 113.23828125 C0.45707948 118.98909386 -1.64138554 124.54406079 -4.03710938 130.10351562 C-7.56686388 138.71611662 -10.56364228 147.54806727 -13.703125 156.30859375 C-15.22582922 160.54500499 -16.75100261 164.78052286 -18.27734375 169.015625 C-18.64593002 170.03870255 -19.0145163 171.06178009 -19.39427185 172.11585999 C-22.03582893 179.43509585 -24.74272719 186.72550481 -27.515625 193.99609375 C-30.83940564 202.71865281 -33.8113106 211.53384511 -36.71704102 220.40356445 C-38.61097953 226.14922596 -40.65388126 231.7392325 -43.09765625 237.27734375 C-45.5250353 243.15341985 -47.58613108 249.17307263 -49.6875 255.17236328 C-50.18056641 256.5585083 -50.18056641 256.5585083 -50.68359375 257.97265625 C-51.12288208 259.2248999 -51.12288208 259.2248999 -51.57104492 260.50244141 C-52.453125 262.55859375 -52.453125 262.55859375 -54.453125 264.55859375 C-56.92407227 264.5078125 -56.92407227 264.5078125 -59.453125 263.55859375 C-60.84350586 261.328125 -60.84350586 261.328125 -61.91796875 258.37109375 C-62.32257324 257.28763672 -62.72717773 256.20417969 -63.14404297 255.08789062 C-63.76110107 253.34088867 -63.76110107 253.34088867 -64.390625 251.55859375 C-64.8252002 250.37845703 -65.25977539 249.19832031 -65.70751953 247.98242188 C-66.97813668 244.51529686 -68.22051568 241.0393876 -69.453125 237.55859375 C-69.77522949 236.65625 -70.09733398 235.75390625 -70.42919922 234.82421875 C-71.70989775 231.23333988 -72.97455692 227.63748182 -74.22265625 224.03515625 C-75.25078549 221.13028316 -76.3420791 218.28164585 -77.515625 215.43359375 C-79.20057966 211.28874747 -80.73633456 207.09747409 -82.203125 202.87109375 C-82.63109375 201.65035156 -83.0590625 200.42960938 -83.5 199.171875 C-85.03906786 193.33729399 -84.82957665 189.2276155 -82.7199707 183.62695312 C-82.17468216 182.16336617 -82.17468216 182.16336617 -81.61837769 180.67021179 C-81.2338443 179.64337784 -80.84931091 178.61654388 -80.453125 177.55859375 C-79.70334781 175.50254626 -78.95592178 173.44564005 -78.21069336 171.38793945 C-76.29310892 166.11061906 -74.37519052 160.83342015 -72.45700741 155.55631733 C-71.30600583 152.38975404 -70.15515694 149.22313541 -69.00463867 146.05639648 C-67.6636993 142.36555883 -66.32209906 138.67496156 -64.98046875 134.984375 C-64.57102524 133.85711502 -64.16158173 132.72985504 -63.73973083 131.56843567 C-61.67376138 125.88691894 -59.58281041 120.21651009 -57.453125 114.55859375 C-56.61461143 112.22711699 -55.78107669 109.89384211 -54.953125 107.55859375 C-52.62727982 100.99851761 -50.20095229 94.48389044 -47.69140625 87.9921875 C-43.7590706 77.80674326 -40.0189693 67.57510609 -36.46533203 57.25146484 C-34.08718268 50.35097146 -31.63996114 43.4786183 -29.140625 36.62109375 C-28.81513672 35.727854 -28.48964844 34.83461426 -28.15429688 33.91430664 C-26.74274742 30.05198747 -25.31937907 26.19488361 -23.8671875 22.34765625 C-22.96060905 19.94451344 -22.10661788 17.54209613 -21.27734375 15.109375 C-20.90222656 14.04074219 -20.52710938 12.97210938 -20.140625 11.87109375 C-19.77324219 10.79472656 -19.40585937 9.71835937 -19.02734375 8.609375 C-14.58630204 0.00279044 -8.89822123 -0.16451641 0 0 Z " fill="#E57412" transform="translate(671.453125,289.44140625)"/>
</svg>
