<svg width="19" height="19" viewBox="0 0 19 19" fill="none" xmlns="http://www.w3.org/2000/svg">
<path d="M9.06187 1.27347C9.2517 0.908843 9.7483 0.908842 9.93812 1.27347L12.2192 5.65512C12.3635 5.93226 12.618 6.12648 12.9127 6.18429L17.5911 7.10209C17.9811 7.17861 18.1353 7.68097 17.8617 7.98409L14.5976 11.6009C14.3895 11.8315 14.2913 12.149 14.3304 12.4647L14.9421 17.4035C14.9933 17.8169 14.5909 18.1265 14.2334 17.9487L9.92626 15.8069C9.65633 15.6727 9.34367 15.6727 9.07374 15.8069L4.76665 17.9487C4.40912 18.1265 4.00667 17.8169 4.05788 17.4035L4.66962 12.4647C4.70872 12.149 4.61051 11.8315 4.40238 11.6009L1.13829 7.98409C0.864731 7.68098 1.01888 7.17861 1.40892 7.10209L6.08734 6.18429C6.382 6.12649 6.63654 5.93226 6.78081 5.65512L9.06187 1.27347Z" stroke="#ADB2BC" stroke-width="1.5"/>
</svg>
